<svg xmlns="http://www.w3.org/2000/svg" width="800" height="600" viewBox="0 0 800 600" role="img" aria-label="AMD GPUOPEN cover">
  <defs>
    <linearGradient id="g" x1="0" y1="0" x2="1" y2="1">
      <stop offset="0" stop-color="#B22222"/>
      <stop offset="1" stop-color="#111111"/>
    </linearGradient>
  </defs>
  <rect width="800" height="600" fill="url(#g)"/>
  <rect width="800" height="600" fill="#000000" opacity="0.12"/>
  <g shape-rendering="crispEdges" opacity="0.28">
      <rect x="484" y="183" width="26" height="26" fill="#ffffff" opacity="1"/>
      <rect x="536" y="183" width="26" height="26" fill="#ffffff" opacity="1"/>
      <rect x="588" y="183" width="26" height="26" fill="#ffffff" opacity="1"/>
      <rect x="640" y="183" width="26" height="26" fill="#ffffff" opacity="1"/>
      <rect x="692" y="183" width="26" height="26" fill="#ffffff" opacity="1"/>
      <rect x="458" y="209" width="26" height="26" fill="#ffffff" opacity="1"/>
      <rect x="484" y="209" width="26" height="26" fill="#ffffff" opacity="1"/>
      <rect x="510" y="209" width="26" height="26" fill="#ffffff" opacity="1"/>
      <rect x="536" y="209" width="26" height="26" fill="#ffffff" opacity="1"/>
      <rect x="562" y="209" width="26" height="26" fill="#ffffff" opacity="1"/>
      <rect x="588" y="209" width="26" height="26" fill="#ffffff" opacity="1"/>
      <rect x="614" y="209" width="26" height="26" fill="#ffffff" opacity="1"/>
      <rect x="640" y="209" width="26" height="26" fill="#ffffff" opacity="1"/>
      <rect x="666" y="209" width="26" height="26" fill="#ffffff" opacity="1"/>
      <rect x="692" y="209" width="26" height="26" fill="#ffffff" opacity="1"/>
      <rect x="718" y="209" width="26" height="26" fill="#ffffff" opacity="1"/>
      <rect x="458" y="235" width="26" height="26" fill="#ffffff" opacity="1"/>
      <rect x="718" y="235" width="26" height="26" fill="#ffffff" opacity="1"/>
      <rect x="458" y="261" width="26" height="26" fill="#ffffff" opacity="1"/>
      <rect x="536" y="261" width="26" height="26" fill="#ffffff" opacity="1"/>
      <rect x="562" y="261" width="26" height="26" fill="#ffffff" opacity="1"/>
      <rect x="588" y="261" width="26" height="26" fill="#ffffff" opacity="1"/>
      <rect x="614" y="261" width="26" height="26" fill="#ffffff" opacity="1"/>
      <rect x="640" y="261" width="26" height="26" fill="#ffffff" opacity="1"/>
      <rect x="718" y="261" width="26" height="26" fill="#ffffff" opacity="1"/>
      <rect x="458" y="287" width="26" height="26" fill="#ffffff" opacity="1"/>
      <rect x="536" y="287" width="26" height="26" fill="#ffffff" opacity="1"/>
      <rect x="640" y="287" width="26" height="26" fill="#ffffff" opacity="1"/>
      <rect x="718" y="287" width="26" height="26" fill="#ffffff" opacity="1"/>
      <rect x="458" y="313" width="26" height="26" fill="#ffffff" opacity="1"/>
      <rect x="536" y="313" width="26" height="26" fill="#ffffff" opacity="1"/>
      <rect x="562" y="313" width="26" height="26" fill="#ffffff" opacity="1"/>
      <rect x="588" y="313" width="26" height="26" fill="#ffffff" opacity="1"/>
      <rect x="614" y="313" width="26" height="26" fill="#ffffff" opacity="1"/>
      <rect x="640" y="313" width="26" height="26" fill="#ffffff" opacity="1"/>
      <rect x="718" y="313" width="26" height="26" fill="#ffffff" opacity="1"/>
      <rect x="458" y="339" width="26" height="26" fill="#ffffff" opacity="1"/>
      <rect x="718" y="339" width="26" height="26" fill="#ffffff" opacity="1"/>
      <rect x="458" y="365" width="26" height="26" fill="#ffffff" opacity="1"/>
      <rect x="484" y="365" width="26" height="26" fill="#ffffff" opacity="1"/>
      <rect x="510" y="365" width="26" height="26" fill="#ffffff" opacity="1"/>
      <rect x="536" y="365" width="26" height="26" fill="#ffffff" opacity="1"/>
      <rect x="562" y="365" width="26" height="26" fill="#ffffff" opacity="1"/>
      <rect x="588" y="365" width="26" height="26" fill="#ffffff" opacity="1"/>
      <rect x="614" y="365" width="26" height="26" fill="#ffffff" opacity="1"/>
      <rect x="640" y="365" width="26" height="26" fill="#ffffff" opacity="1"/>
      <rect x="666" y="365" width="26" height="26" fill="#ffffff" opacity="1"/>
      <rect x="692" y="365" width="26" height="26" fill="#ffffff" opacity="1"/>
      <rect x="718" y="365" width="26" height="26" fill="#ffffff" opacity="1"/>
      <rect x="484" y="391" width="26" height="26" fill="#ffffff" opacity="1"/>
      <rect x="536" y="391" width="26" height="26" fill="#ffffff" opacity="1"/>
      <rect x="588" y="391" width="26" height="26" fill="#ffffff" opacity="1"/>
      <rect x="640" y="391" width="26" height="26" fill="#ffffff" opacity="1"/>
      <rect x="692" y="391" width="26" height="26" fill="#ffffff" opacity="1"/>
  </g>
  <g shape-rendering="crispEdges" opacity="0.35">
    <rect x="64" y="150" width="14" height="14" fill="#ffffff"/>
    <rect x="86" y="150" width="14" height="14" fill="#ffffff" opacity="0.6"/>
    <rect x="108" y="150" width="14" height="14" fill="#ffffff" opacity="0.3"/>
  </g>
  <g>
      <text x="64" y="268" font-family="'Arial Black', Arial, sans-serif" font-weight="900" font-size="66" letter-spacing="1" fill="#ffffff">AMD</text>
      <text x="64" y="346" font-family="'Arial Black', Arial, sans-serif" font-weight="900" font-size="66" letter-spacing="1" fill="#ffffff">GPUOPEN</text>
  </g>
  <text x="64" y="460" font-family="Arial, sans-serif" font-weight="600" font-size="24" letter-spacing="3" fill="#ffffff" opacity="0.85">OPEN-SOURCE DEVREL</text>
</svg>
